<?xml version="1.0" encoding="iso-8859-1"?>
<!-- Uploaded to: SVG Repo, www.svgrepo.com, Generator: SVG Repo Mixer Tools -->
<svg version="1.1" id="Layer_1" xmlns="http://www.w3.org/2000/svg" xmlns:xlink="http://www.w3.org/1999/xlink" 
	 viewBox="0 0 512 512" xml:space="preserve">
<path style="fill:#AADDE6;" d="M371.117,151.613H140.882c-6.862,0-12.476,5.565-12.476,12.366v125.412
	c0,6.802,5.613,12.367,12.476,12.367h15.459l9.247,197.887c0.318,6.796,6.192,12.355,13.054,12.355h154.713
	c6.863,0,12.737-5.559,13.055-12.354l9.247-197.887h15.458c6.863,0,12.478-5.565,12.478-12.367V163.98
	C383.595,157.178,377.981,151.613,371.117,151.613z"/>
<rect x="247.912" y="76.278" style="fill:#736357;" width="16.169" height="148.376"/>
<path style="fill:#E84731;" d="M309.309,82.914c-14.537,0-26.362,11.721-26.362,26.129v115.611h29.29V111.946h74.301
	c2.642,0,4.784-2.142,4.784-4.784V87.697c0-2.643-2.142-4.784-4.784-4.784H309.309z"/>
<path style="fill:#36999E;" d="M199.762,224.653h29.291V120.074c0-14.407-11.825-26.129-26.361-26.129h-77.229
	c-2.643,0-4.784,2.142-4.784,4.784v19.464c0,2.642,2.142,4.784,4.784,4.784h74.301v101.676H199.762z"/>
<path style="fill:#F4645D;" d="M201.903,487.266c-6.666,0-12.155-5.195-12.465-11.796l-8.17-174.856
	c-0.508-10.895-7.974-20.053-18.575-22.789c-5.497-1.419-9.333-6.338-9.333-11.968v-33.354c0-6.831,5.585-12.366,12.476-12.366
	h180.329c6.89,0,12.475,5.537,12.475,12.366v33.354c0,5.63-3.837,10.549-9.332,11.968c-10.604,2.737-18.068,11.895-18.577,22.79
	l-8.17,174.856c-0.308,6.6-5.797,11.795-12.464,11.795H201.903z"/>
<g>
	<path style="fill:#B72F18;" d="M225.461,248.58c0-4.465-3.62-8.084-8.084-8.084h-6.352c-4.465,0-8.084,3.62-8.084,8.084
		s3.62,8.084,8.084,8.084h6.352C221.843,256.665,225.461,253.045,225.461,248.58z"/>
	<path style="fill:#B72F18;" d="M251.123,267.703h-6.352c-4.465,0-8.084,3.62-8.084,8.084c0,4.465,3.62,8.084,8.084,8.084h6.352
		c4.465,0,8.084-3.62,8.084-8.084C259.206,271.322,255.587,267.703,251.123,267.703z"/>
	<path style="fill:#B72F18;" d="M299.669,245.443h-6.352c-4.465,0-8.084,3.62-8.084,8.084c0,4.465,3.62,8.084,8.084,8.084h6.352
		c4.465,0,8.084-3.62,8.084-8.084C307.753,249.063,304.134,245.443,299.669,245.443z"/>
	<path style="fill:#B72F18;" d="M289.688,319.646h-6.352c-4.465,0-8.084,3.62-8.084,8.084c0,4.465,3.62,8.084,8.084,8.084h6.352
		c4.465,0,8.084-3.62,8.084-8.084C297.772,323.265,294.153,319.646,289.688,319.646z"/>
	<path style="fill:#B72F18;" d="M236.037,341.906h-6.352c-4.465,0-8.084,3.62-8.084,8.084c0,4.465,3.62,8.084,8.084,8.084h6.352
		c4.465,0,8.084-3.62,8.084-8.084C244.12,345.526,240.5,341.906,236.037,341.906z"/>
	<path style="fill:#B72F18;" d="M272.22,395.175c4.465,0,8.084-3.62,8.084-8.083c0-4.465-3.62-8.084-8.084-8.084h-6.352
		c-4.465,0-8.084,3.62-8.084,8.084c0,4.464,3.62,8.083,8.084,8.083H272.22z"/>
	<path style="fill:#B72F18;" d="M228.55,406.216h-6.352c-4.465,0-8.084,3.62-8.084,8.084c0,4.465,3.62,8.084,8.084,8.084h6.352
		c4.465,0,8.084-3.62,8.084-8.084S233.015,406.216,228.55,406.216z"/>
	<path style="fill:#B72F18;" d="M274.716,437.133h-6.352c-4.465,0-8.084,3.62-8.084,8.084c0,4.465,3.62,8.084,8.084,8.084h6.352
		c4.465,0,8.084-3.62,8.084-8.084C282.799,440.753,279.181,437.133,274.716,437.133z"/>
</g>
<path style="fill:#E84731;" d="M255.999,88.177c-1.474,0-2.886-0.581-3.928-1.614l-38.325-38.021
	c-5.419-5.371-8.403-12.511-8.403-20.106c0-7.596,2.984-14.736,8.403-20.107C219.164,2.958,226.368,0,234.03,0
	c7.664,0,14.868,2.958,20.287,8.329l1.682,1.668l1.683-1.669C263.102,2.958,270.305,0,277.969,0c7.661,0,14.866,2.958,20.284,8.329
	s8.404,12.511,8.404,20.107c0,7.595-2.986,14.735-8.404,20.106l-38.325,38.02C258.885,87.596,257.474,88.177,255.999,88.177z"/>
<path style="opacity:0.1;enable-background:new    ;" d="M271.469,74.377l-38.325-38.021c-5.419-5.371-8.403-12.511-8.403-20.106
	c0-5.761,1.72-11.258,4.913-15.921c-6,0.905-11.536,3.666-15.906,7.999c-5.419,5.371-8.403,12.511-8.403,20.107
	c0,7.595,2.984,14.735,8.403,20.106l38.325,38.021c1.042,1.034,2.453,1.614,3.928,1.614c1.474,0,2.886-0.581,3.929-1.614
	l11.948-11.853C271.741,74.597,271.595,74.501,271.469,74.377z"/>
<g style="opacity:0.1;">
	<path d="M224.297,464.924c-6.666,0-12.156-5.194-12.465-11.795l-8.17-174.857c-0.509-10.894-7.974-20.053-18.576-22.789
		c-5.497-1.419-9.333-6.338-9.333-11.968v-23.38h-9.918c-6.891,0-12.476,5.537-12.476,12.366v33.354
		c0,5.63,3.836,10.549,9.333,11.968c10.602,2.737,18.067,11.894,18.575,22.789l8.17,174.856c0.308,6.601,5.798,11.796,12.465,11.796
		h108.195c6.666,0,12.154-5.195,12.464-11.795l0.492-10.547h-98.755V464.924z"/>
</g>
</svg>